<svg width="25" height="24" viewBox="0 0 25 24" fill="currentColor" xmlns="http://www.w3.org/2000/svg">
<path d="M12.188 2C9.56802 2 7.43802 4.13 7.43802 6.75C7.43802 9.32 9.44802 11.4 12.068 11.49C12.148 11.48 12.228 11.48 12.288 11.49C12.308 11.49 12.318 11.49 12.338 11.49C12.348 11.49 12.348 11.49 12.358 11.49C14.918 11.4 16.928 9.32 16.938 6.75C16.938 4.13 14.808 2 12.188 2Z" fill="currentColor"/>
<path d="M17.268 14.15C14.478 12.29 9.92802 12.29 7.11802 14.15C5.84802 15 5.14802 16.15 5.14802 17.38C5.14802 18.61 5.84802 19.75 7.10802 20.59C8.50802 21.53 10.348 22 12.188 22C14.028 22 15.868 21.53 17.268 20.59C18.528 19.74 19.228 18.6 19.228 17.36C19.218 16.13 18.528 14.99 17.268 14.15Z" fill="currentColor"/>
</svg>
