<svg width="25" height="24" viewBox="0 0 25 24" fill="currentColor" xmlns="http://www.w3.org/2000/svg">
<path d="M20.24 3.67C20.24 3.66 20.24 3.65 20.22 3.64C20 3.36 19.71 3.21 19.37 3.21C18.84 3.21 18.2 3.56 17.51 4.3C16.69 5.18 15.43 5.11 14.71 4.15L13.7 2.81C13.3 2.27 12.77 2 12.24 2C11.71 2 11.18 2.27 10.78 2.81L9.75999 4.16C9.04999 5.11 7.79999 5.18 6.97999 4.31L6.96999 4.3C5.83999 3.09 4.82999 2.91 4.25999 3.64C4.23999 3.65 4.23999 3.66 4.23999 3.67C3.87999 4.44 3.73999 5.52 3.73999 7.04V16.96C3.73999 18.48 3.87999 19.56 4.23999 20.33C4.23999 20.34 4.24999 20.36 4.25999 20.37C4.83999 21.09 5.83999 20.91 6.96999 19.7L6.97999 19.69C7.79999 18.82 9.04999 18.89 9.75999 19.84L10.78 21.19C11.18 21.73 11.71 22 12.24 22C12.77 22 13.3 21.73 13.7 21.19L14.71 19.85C15.43 18.89 16.69 18.82 17.51 19.7C18.2 20.44 18.84 20.79 19.37 20.79C19.71 20.79 20 20.65 20.22 20.37C20.23 20.36 20.24 20.34 20.24 20.33C20.6 19.56 20.74 18.48 20.74 16.96V7.04C20.74 5.52 20.6 4.44 20.24 3.67ZM14.74 14.5H8.73999C8.32999 14.5 7.98999 14.16 7.98999 13.75C7.98999 13.34 8.32999 13 8.73999 13H14.74C15.15 13 15.49 13.34 15.49 13.75C15.49 14.16 15.15 14.5 14.74 14.5ZM16.74 11H8.73999C8.32999 11 7.98999 10.66 7.98999 10.25C7.98999 9.84 8.32999 9.5 8.73999 9.5H16.74C17.15 9.5 17.49 9.84 17.49 10.25C17.49 10.66 17.15 11 16.74 11Z" fill="currentColor"/>
</svg>
