<svg width="430" height="725" viewBox="0 0 430 725" fill="none" xmlns="http://www.w3.org/2000/svg">
<g clip-path="url(#clip0_1_14)">
<rect width="430" height="725" fill="#101223"/>
<g opacity="0.8">
<mask id="mask0_1_14" style="mask-type:alpha" maskUnits="userSpaceOnUse" x="-769" y="-146" width="1932" height="1270">
<ellipse cx="197" cy="489" rx="966" ry="635" fill="url(#paint0_linear_1_14)"/>
</mask>
<g mask="url(#mask0_1_14)">
<g clip-path="url(#clip1_1_14)">
<g opacity="0.5">
<g clip-path="url(#clip2_1_14)">
<line x1="24.3" y1="-43" x2="24.3" y2="725" stroke="white" stroke-opacity="0.4" stroke-width="0.6"/>
<line x1="114.3" y1="-43" x2="114.3" y2="725" stroke="white" stroke-opacity="0.4" stroke-width="0.6"/>
<line x1="204.3" y1="-43" x2="204.3" y2="725" stroke="white" stroke-opacity="0.4" stroke-width="0.6"/>
<line x1="294.3" y1="-43" x2="294.3" y2="725" stroke="white" stroke-opacity="0.4" stroke-width="0.6"/>
<line x1="384.3" y1="-43" x2="384.3" y2="725" stroke="white" stroke-opacity="0.4" stroke-width="0.6"/>
</g>
<rect x="-515.5" y="-42.5" width="1439" height="767" stroke="#1F242F"/>
</g>
<g opacity="0.5">
<g clip-path="url(#clip3_1_14)">
<line x1="-516" y1="4.7" x2="924" y2="4.7" stroke="white" stroke-opacity="0.4" stroke-width="0.6"/>
<line x1="-516" y1="52.7" x2="924" y2="52.7" stroke="white" stroke-opacity="0.4" stroke-width="0.6"/>
<line x1="-516" y1="100.7" x2="924" y2="100.7" stroke="white" stroke-opacity="0.4" stroke-width="0.6"/>
<line x1="-516" y1="148.7" x2="924" y2="148.7" stroke="white" stroke-opacity="0.4" stroke-width="0.6"/>
<line x1="-516" y1="196.7" x2="924" y2="196.7" stroke="white" stroke-opacity="0.4" stroke-width="0.6"/>
<line x1="-516" y1="244.7" x2="924" y2="244.7" stroke="white" stroke-opacity="0.4" stroke-width="0.6"/>
<line x1="-516" y1="292.7" x2="924" y2="292.7" stroke="white" stroke-opacity="0.4" stroke-width="0.6"/>
<line x1="-516" y1="340.7" x2="924" y2="340.7" stroke="white" stroke-opacity="0.4" stroke-width="0.6"/>
<line x1="-516" y1="388.7" x2="924" y2="388.7" stroke="white" stroke-opacity="0.4" stroke-width="0.6"/>
<line x1="-516" y1="436.7" x2="924" y2="436.7" stroke="white" stroke-opacity="0.4" stroke-width="0.6"/>
<line x1="-516" y1="484.7" x2="924" y2="484.7" stroke="white" stroke-opacity="0.4" stroke-width="0.6"/>
<line x1="-516" y1="532.7" x2="924" y2="532.7" stroke="white" stroke-opacity="0.4" stroke-width="0.6"/>
<line x1="-516" y1="580.7" x2="924" y2="580.7" stroke="white" stroke-opacity="0.4" stroke-width="0.6"/>
<line x1="-516" y1="628.7" x2="924" y2="628.7" stroke="white" stroke-opacity="0.4" stroke-width="0.6"/>
<line x1="-516" y1="676.7" x2="924" y2="676.7" stroke="white" stroke-opacity="0.4" stroke-width="0.6"/>
<line x1="-516" y1="724.7" x2="924" y2="724.7" stroke="white" stroke-opacity="0.4" stroke-width="0.6"/>
</g>
<rect x="-515.5" y="-42.5" width="1439" height="767" stroke="#1F242F"/>
</g>
</g>
</g>
</g>
</g>
<defs>
<linearGradient id="paint0_linear_1_14" x1="271.542" y1="836.5" x2="271.542" y2="-59.5" gradientUnits="userSpaceOnUse">
<stop stop-color="#D9D9D9"/>
<stop offset="1" stop-color="#D9D9D9" stop-opacity="0"/>
</linearGradient>
<clipPath id="clip0_1_14">
<rect width="430" height="725" fill="white"/>
</clipPath>
<clipPath id="clip1_1_14">
<rect width="1440" height="768" fill="white" transform="translate(-516 -43)"/>
</clipPath>
<clipPath id="clip2_1_14">
<rect x="-516" y="-43" width="1440" height="768" fill="white"/>
</clipPath>
<clipPath id="clip3_1_14">
<rect x="-516" y="-43" width="1440" height="768" fill="white"/>
</clipPath>
</defs>
</svg>
